<svg width="46" height="46" viewBox="0 0 46 46" fill="none" xmlns="http://www.w3.org/2000/svg">
<path d="M45.5168 22.6704C45.5395 20.2287 44.62 17.7797 42.7567 15.9169C42.3459 15.5062 41.9063 15.1414 41.4444 14.822C41.5311 14.3085 41.5765 13.7817 41.5765 13.2435C41.5765 8.03702 37.3561 3.81662 32.1495 3.81662C31.5685 3.81662 30.9993 3.86977 30.4472 3.97039C30.1453 3.54624 29.8047 3.14117 29.4244 2.76088C25.7432 -0.920293 19.7739 -0.920293 16.0927 2.76088C15.6819 3.17162 15.3171 3.61125 14.9977 4.07308C14.4843 3.98639 13.9574 3.94098 13.4192 3.94098C8.21262 3.94098 3.99214 8.16138 3.99214 13.3679C3.99214 13.9107 4.03858 14.4432 4.12682 14.9613C3.64538 15.2889 3.18768 15.6661 2.76093 16.0929C-0.920311 19.7741 -0.920311 25.7432 2.76093 29.4244C3.21864 29.8821 3.71143 30.2825 4.23106 30.6261C4.15572 31.1055 4.1165 31.5967 4.1165 32.0978C4.1165 37.3043 8.33698 41.5247 13.5436 41.5247C14.0317 41.5247 14.5111 41.4875 14.9791 41.4163C15.3027 41.8879 15.6737 42.3368 16.0927 42.7564C19.7739 46.4375 25.7432 46.4375 29.4244 42.7564C29.4538 42.7269 29.4822 42.697 29.5111 42.6676C29.5405 42.6387 29.5704 42.6103 29.5999 42.5809C30.0106 42.1702 30.3754 41.73 30.6948 41.2687C31.2083 41.3554 31.7351 41.4008 32.2733 41.4008C37.4799 41.4008 41.7004 37.1804 41.7004 31.9739C41.7004 31.4476 41.6565 30.9311 41.5734 30.428C41.9878 30.1308 42.3841 29.7969 42.7562 29.4244C44.619 27.5616 45.539 25.1126 45.5163 22.6709L45.5168 22.6704ZM27.1354 23.1178L34.7528 29.1586C35.1666 29.4868 34.7899 30.139 34.2987 29.945L25.2581 26.3686C24.9831 26.2597 24.6786 26.4357 24.6353 26.7282L23.2121 36.3455C23.1347 36.8677 22.3813 36.8677 22.3045 36.3455L20.8813 26.7282C20.8379 26.4357 20.5335 26.2597 20.2585 26.3686L11.2179 29.945C10.7272 30.139 10.3505 29.4868 10.7638 29.1586L18.3812 23.1178C18.6129 22.9341 18.6129 22.5821 18.3812 22.3984L10.7638 16.3576C10.35 16.0294 10.7266 15.3772 11.2179 15.5712L20.2585 19.1476C20.5335 19.2565 20.8379 19.0805 20.8813 18.788L22.3045 9.17068C22.3819 8.64849 23.1352 8.64849 23.2121 9.17068L24.6353 18.788C24.6786 19.0805 24.9831 19.2565 25.2581 19.1476L34.2987 15.5712C34.7894 15.3772 35.1661 16.0294 34.7528 16.3576L27.1354 22.3984C26.9037 22.5821 26.9037 22.9341 27.1354 23.1178Z" fill="#F0EFED"/>
</svg>
